# xmcd CD database file
#
# Track frame offsets:
#	150
#	12245
#	24862
#	37130
#	49815
#	63197
#	75070
#	88947
#	99272
#	116020
#	137080
#	151212
#	161872
#	170647
#
# Disc length: 2426 seconds
#
# Revision: 0
# Processed by: cddbd v1.5.1PL0 Copyright (c) Steve Scherf et al.
# Submitted via: ACXtractor (MTCDDB.DLL V2003.12.21)
#
DISCID=a709780e
DTITLE=Johnny Winter - Livin' In The Blues
DYEAR=1997
DGENRE=Blues
TTITLE0=Livin' In The Blues
TTITLE1=Leavin' Blues
TTITLE2=Parchman Farm
TTITLE3=Bad News
TTITLE4=Birds Can't Row Boats
TTITLE5=The World Turns All Around Her
TTITLE6=Take A Chance On My Love
TTITLE7=32-20 Blues
TTITLE8=Kindhearted Woman Blues
TTITLE9=Going Down Slow
TTITLE10=Low Down Gal Of Mine
TTITLE11=Out Of Sight
TTITLE12=I Had To Cry
TTITLE13=Avocado Green
EXTD=ID3G:   0 YEAR: 1997
EXTT0=
EXTT1=
EXTT2=
EXTT3=
EXTT4=
EXTT5=
EXTT6=
EXTT7=
EXTT8=
EXTT9=
EXTT10=
EXTT11=
EXTT12=
EXTT13=
PLAYORDER=
